<?xml version="1.0" encoding="utf-8"?>
<!-- Generator: Adobe Illustrator 22.0.1, SVG Export Plug-In . SVG Version: 6.00 Build 0)  -->
<svg version="1.1" id="Слой_1" xmlns="http://www.w3.org/2000/svg" xmlns:xlink="http://www.w3.org/1999/xlink" x="0px" y="0px"
	 viewBox="0 0 32 32" style="enable-background:new 0 0 32 32;" xml:space="preserve">
<style type="text/css">
	.st0{fill:#262D2A;}
	.st1{fill:#038E21;}
</style>
<path class="st0" d="M25.4,3H13.2l0,0c-0.2,0-0.3,0.1-0.4,0.2l-7,7c-0.1,0.1-0.2,0.3-0.2,0.4l0,0V28c0,0.5,0.4,1,1,1h18.8
	c0.5,0,1-0.4,1-1V4C26.4,3.4,25.9,3,25.4,3z M7.7,10l4.9-4.9V10H7.7z M25.2,4.2v23.6H6.8V11.2h6.4c0.3,0,0.6-0.3,0.6-0.6V4.2H25.2z"
	/>
<polygon id="XMLID_73_" class="st1" points="23.1,15.2 21,13.1 14.2,20 11,16.8 8.9,18.9 14.2,24.2 14.2,24.2 14.2,24.2 "/>
</svg>
