<?xml version="1.0" encoding="utf-8"?>
<!-- Generator: Adobe Illustrator 22.0.1, SVG Export Plug-In . SVG Version: 6.00 Build 0)  -->
<svg version="1.1" id="Слой_1" xmlns="http://www.w3.org/2000/svg" xmlns:xlink="http://www.w3.org/1999/xlink" x="0px" y="0px"
	 viewBox="0 0 32 32" style="enable-background:new 0 0 32 32;" xml:space="preserve">
<style type="text/css">
	.st0{fill:#2C2C33;}
</style>
<g id="XMLID_10_">
	<path id="XMLID_14_" class="st0" d="M9.3,3.4c0-0.8,0.7-1.5,1.5-1.5h10.5c0.8,0,1.5,0.7,1.5,1.5v4.5h1.9V3.4c0-0.9-0.3-1.7-1-2.4
		c-0.6-0.6-1.5-1-2.4-1H10.8C9.9,0,9,0.3,8.4,1c-0.6,0.6-1,1.5-1,2.4v4.5h1.9V3.4z"/>
	<path id="XMLID_19_" class="st0" d="M28.3,9.6c-0.6-0.6-1.5-1-2.4-1H6c-0.9,0-1.7,0.3-2.4,1c-0.6,0.6-1,1.5-1,2.4v7.2
		c0,0.9,0.3,1.7,1,2.4c0.6,0.6,1.5,1,2.4,1h0.6v-1.9H6c-0.8,0-1.5-0.7-1.5-1.5V12c0-0.8,0.7-1.5,1.5-1.5H26c0.8,0,1.5,0.7,1.5,1.5
		v7.2c0,0.8-0.7,1.5-1.5,1.5h-0.6v1.9H26c0.9,0,1.7-0.3,2.4-1c0.6-0.6,1-1.5,1-2.4V12C29.3,11.1,29,10.2,28.3,9.6z"/>
	<path id="XMLID_24_" class="st0" d="M25.4,18.9c0.2,0,0.4-0.2,0.4-0.4v-1c0-0.2-0.2-0.4-0.4-0.4H6.6c-0.2,0-0.4,0.2-0.4,0.4v1
		c0,0.2,0.2,0.4,0.4,0.4h0.8c0,0.1,0,0.1,0,0.2v9.5c0,0.9,0.3,1.7,1,2.4c0.6,0.6,1.5,1,2.4,1h10.5c0.9,0,1.7-0.3,2.4-1
		c0.6-0.6,1-1.5,1-2.4v-9.5c0-0.1,0-0.1,0-0.2H25.4z M22.7,19.1v9.5c0,0.8-0.7,1.5-1.5,1.5H10.8c-0.8,0-1.5-0.7-1.5-1.5v-9.5
		c0-0.1,0-0.1,0-0.2h13.4C22.7,19,22.7,19,22.7,19.1z"/>
	<rect id="XMLID_25_" x="11.2" y="20.6" class="st0" width="9.6" height="1.7"/>
	<rect id="XMLID_26_" x="11.2" y="23.6" class="st0" width="9.6" height="1.7"/>
	<rect id="XMLID_27_" x="11.2" y="26.7" class="st0" width="9.6" height="1.7"/>
	<circle id="XMLID_28_" class="st0" cx="23.8" cy="13.7" r="1.2"/>
	<circle id="XMLID_1_" class="st0" cx="7.8" cy="13.7" r="1.2"/>
</g>
</svg>
