<?xml version="1.0" encoding="utf-8"?>
<!-- Generator: Adobe Illustrator 21.1.0, SVG Export Plug-In . SVG Version: 6.00 Build 0)  -->
<svg version="1.1" id="Слой_1" xmlns="http://www.w3.org/2000/svg" xmlns:xlink="http://www.w3.org/1999/xlink" x="0px" y="0px"
	 viewBox="0 0 805 32" style="enable-background:new 0 0 805 32;" xml:space="preserve">
<style type="text/css">
	.st0{fill:#F2F2F2;}
	.st1{fill:#666666;}
	.st2{fill:#CCCCCC;}
</style>
<rect y="15" class="st0" width="805" height="2"/>
<rect class="st1" width="1" height="32"/>
<rect x="115" class="st1" width="1" height="32"/>
<rect x="230" class="st1" width="1" height="32"/>
<rect x="345" class="st1" width="1" height="32"/>
<rect x="460" class="st1" width="1" height="32"/>
<rect x="575" class="st1" width="1" height="32"/>
<rect x="690" class="st1" width="1" height="32"/>
<rect x="804" class="st1" width="1" height="32"/>
<rect x="23" y="4" class="st2" width="1" height="24"/>
<rect x="46" y="4" class="st2" width="1" height="24"/>
<rect x="69" y="4" class="st2" width="1" height="24"/>
<rect x="92" y="4" class="st2" width="1" height="24"/>
<rect x="138" y="4" class="st2" width="1" height="24"/>
<rect x="161" y="4" class="st2" width="1" height="24"/>
<rect x="184" y="4" class="st2" width="1" height="24"/>
<rect x="207" y="4" class="st2" width="1" height="24"/>
<rect x="253" y="4" class="st2" width="1" height="24"/>
<rect x="276" y="4" class="st2" width="1" height="24"/>
<rect x="299" y="4" class="st2" width="1" height="24"/>
<rect x="322" y="4" class="st2" width="1" height="24"/>
<rect x="368" y="4" class="st2" width="1" height="24"/>
<rect x="391" y="4" class="st2" width="1" height="24"/>
<rect x="414" y="4" class="st2" width="1" height="24"/>
<rect x="437" y="4" class="st2" width="1" height="24"/>
<rect x="480" y="4" class="st2" width="1" height="24"/>
<rect x="503" y="4" class="st2" width="1" height="24"/>
<rect x="526" y="4" class="st2" width="1" height="24"/>
<rect x="549" y="4" class="st2" width="1" height="24"/>
<rect x="595" y="4" class="st2" width="1" height="24"/>
<rect x="618" y="4" class="st2" width="1" height="24"/>
<rect x="641" y="4" class="st2" width="1" height="24"/>
<rect x="664" y="4" class="st2" width="1" height="24"/>
<rect x="710" y="4" class="st2" width="1" height="24"/>
<rect x="733" y="4" class="st2" width="1" height="24"/>
<rect x="756" y="4" class="st2" width="1" height="24"/>
<rect x="779" y="4" class="st2" width="1" height="24"/>
</svg>
