<?xml version="1.0" encoding="utf-8"?>
<!-- Generator: Adobe Illustrator 21.1.0, SVG Export Plug-In . SVG Version: 6.00 Build 0)  -->
<svg version="1.1" id="Слой_1" xmlns="http://www.w3.org/2000/svg" xmlns:xlink="http://www.w3.org/1999/xlink" x="0px" y="0px"
	 viewBox="0 0 805 40" style="enable-background:new 0 0 805 40;" xml:space="preserve">
<style type="text/css">
	.st0{fill:#666666;}
	.st1{fill:#B2B2B2;}
	.st2{fill:#E5E5E5;}
	.st3{fill:#FFFFFF;}
	.st4{fill:#333333;}
</style>
<rect x="230" class="st0" width="230" height="40"/>
<rect x="115.5" class="st1" width="115" height="40"/>
<rect x="0.5" class="st2" width="115" height="40"/>
<rect x="460.5" class="st1" width="115" height="40"/>
<rect x="575.5" class="st2" width="229" height="40"/>
<rect x="115" y="0" class="st3" width="1" height="40"/>
<rect x="575" class="st3" width="1" height="40"/>
<g>
	<path class="st3" d="M327.5,15.2v4h4.6v-4h1.2v9.4h-1.2v-4.4h-4.6v4.4h-1.2v-9.4H327.5z"/>
	<path class="st3" d="M341.5,21.2c0,2.5-1.8,3.6-3.4,3.6c-1.8,0-3.3-1.3-3.3-3.5c0-2.3,1.5-3.6,3.4-3.6
		C340.2,17.7,341.5,19.1,341.5,21.2z M336.2,21.2c0,1.5,0.8,2.6,2,2.6c1.2,0,2.1-1.1,2.1-2.6c0-1.1-0.6-2.6-2-2.6
		C336.8,18.6,336.2,20,336.2,21.2z"/>
	<path class="st3" d="M343.1,20c0-0.9,0-1.6-0.1-2.2h1.1l0.1,1.2h0c0.5-0.8,1.3-1.3,2.4-1.3c1.7,0,2.9,1.4,2.9,3.4
		c0,2.4-1.5,3.6-3.1,3.6c-0.9,0-1.7-0.4-2.1-1.1h0v3.7h-1.2V20z M344.3,21.8c0,0.2,0,0.4,0.1,0.5c0.2,0.9,1,1.4,1.8,1.4
		c1.3,0,2.1-1.1,2.1-2.6c0-1.3-0.7-2.5-2-2.5c-0.8,0-1.6,0.6-1.9,1.5c0,0.2-0.1,0.3-0.1,0.5V21.8z"/>
	<path class="st3" d="M351.1,17.8h1.5l1.2,3.4c0.2,0.5,0.5,1.3,0.6,1.9h0c0.2-0.5,0.5-1.6,0.8-2.3l1.1-3h1.5l0.5,6.8h-1.2l-0.2-3.2
		c0-0.7-0.1-1.6-0.1-2.4h0c-0.2,0.6-0.4,1.1-0.8,2.2l-1.3,3.4H354l-1.2-3.4c-0.2-0.6-0.5-1.6-0.7-2.2H352c0,0.8-0.1,1.7-0.1,2.4
		l-0.2,3.2h-1.1L351.1,17.8z"/>
	<path class="st3" d="M364.8,23c0,0.6,0,1.2,0.1,1.6h-1.1l-0.1-0.9h0c-0.4,0.5-1.1,1-2.1,1c-1.4,0-2.1-1-2.1-1.9
		c0-1.6,1.5-2.5,4.1-2.5v-0.1c0-0.5-0.2-1.6-1.5-1.6c-0.6,0-1.3,0.2-1.8,0.5l-0.3-0.8c0.6-0.4,1.4-0.6,2.2-0.6
		c2.1,0,2.6,1.4,2.6,2.8V23z M363.6,21.1c-1.3,0-2.9,0.2-2.9,1.5c0,0.8,0.5,1.2,1.1,1.2c0.9,0,1.5-0.6,1.7-1.1
		c0-0.1,0.1-0.3,0.1-0.4V21.1z"/>
</g>
<g>
	<path class="st4" d="M135.9,15.2v4h4.6v-4h1.2v9.4h-1.2v-4.4h-4.6v4.4h-1.2v-9.4H135.9z"/>
	<path class="st4" d="M144.9,17.8v2.9c0,1.1,0,1.8-0.1,2.7l0,0c0.4-0.8,0.6-1.3,1.1-2.1l2.1-3.5h1.4v6.8h-1.2v-2.9
		c0-1.1,0-1.7,0.1-2.8h0c-0.4,0.9-0.7,1.4-1.1,2.1c-0.6,1.1-1.4,2.4-2.1,3.5h-1.4v-6.8H144.9z"/>
	<path class="st4" d="M152.1,17.8l2.3,3h0.2v-3h1.2v3h0.2l2.2-3h1.4l-2.7,3.1c1,0.1,1.6,0.7,2,1.8c0.2,0.7,0.5,1.4,0.7,1.9h-1.2
		c-0.2-0.4-0.4-1-0.6-1.6c-0.4-1.1-1.1-1.4-1.9-1.4h-0.2v3h-1.2v-3h-0.2c-1,0-1.5,0.4-2,1.5c-0.2,0.6-0.4,1.1-0.6,1.5h-1.2
		c0.3-0.5,0.5-1.3,0.8-1.9c0.4-1.1,1-1.7,2-1.8l-2.7-3.1H152.1z"/>
	<path class="st4" d="M161.5,21.4c0,1.7,1.1,2.4,2.3,2.4c0.9,0,1.4-0.2,1.9-0.4l0.2,0.9c-0.4,0.2-1.2,0.4-2.3,0.4
		c-2.1,0-3.3-1.4-3.3-3.4c0-2,1.2-3.6,3.2-3.6c2.2,0,2.8,1.9,2.8,3.2c0,0.3,0,0.4,0,0.6H161.5z M165.1,20.6c0-0.8-0.3-2-1.7-2
		c-1.3,0-1.8,1.1-1.9,2H165.1z"/>
	<path class="st4" d="M172,17.8v2.7h3.2v-2.7h1.2v6.8h-1.2v-3.1H172v3.1h-1.2v-6.8H172z"/>
	<path class="st4" d="M184.6,21.2c0,2.5-1.8,3.6-3.4,3.6c-1.8,0-3.3-1.3-3.3-3.5c0-2.3,1.5-3.6,3.4-3.6
		C183.3,17.7,184.6,19.1,184.6,21.2z M179.2,21.2c0,1.5,0.8,2.6,2,2.6c1.2,0,2.1-1.1,2.1-2.6c0-1.1-0.6-2.6-2-2.6
		C179.9,18.6,179.2,20,179.2,21.2z"/>
	<path class="st4" d="M186.1,20c0-0.9,0-1.6-0.1-2.2h1.1l0.1,1.2h0c0.5-0.8,1.3-1.3,2.4-1.3c1.7,0,2.9,1.4,2.9,3.4
		c0,2.4-1.5,3.6-3.1,3.6c-0.9,0-1.7-0.4-2.1-1.1h0v3.7h-1.2V20z M187.4,21.8c0,0.2,0,0.4,0.1,0.5c0.2,0.9,1,1.4,1.8,1.4
		c1.3,0,2.1-1.1,2.1-2.6c0-1.3-0.7-2.5-2-2.5c-0.8,0-1.6,0.6-1.9,1.5c0,0.2-0.1,0.3-0.1,0.5V21.8z"/>
	<path class="st4" d="M194.2,17.8h1.5l1.2,3.4c0.2,0.5,0.5,1.3,0.6,1.9h0c0.2-0.5,0.5-1.6,0.8-2.3l1.1-3h1.5l0.5,6.8h-1.2l-0.2-3.2
		c0-0.7-0.1-1.6-0.1-2.4h0c-0.2,0.6-0.4,1.1-0.8,2.2l-1.3,3.4H197l-1.2-3.4c-0.2-0.6-0.5-1.6-0.7-2.2h-0.1c0,0.8-0.1,1.7-0.1,2.4
		l-0.2,3.2h-1.1L194.2,17.8z"/>
	<path class="st4" d="M204.2,17.8v2.3c0.3,0,0.6-0.1,1.1-0.1c1.5,0,2.9,0.6,2.9,2.3c0,0.7-0.3,1.2-0.7,1.6c-0.7,0.6-1.8,0.8-2.7,0.8
		c-0.7,0-1.3,0-1.8-0.1v-6.8H204.2z M204.2,23.7c0.3,0,0.5,0.1,0.9,0.1c1,0,2-0.4,2-1.4c0-1.1-1-1.4-1.9-1.4c-0.4,0-0.7,0-0.9,0.1
		V23.7z M210.3,17.8v6.8h-1.2v-6.8H210.3z"/>
</g>
<g>
	<path class="st4" d="M19.7,8.7C20.4,8.3,21.2,8,22.2,8c1.6,0,2.8,0.9,2.8,2.3c0,1.2-0.9,2.1-1.9,2.3v0c1.3,0.1,2.3,1,2.3,2.4
		c0,2-1.7,2.7-3.4,2.7c-0.9,0-1.7-0.2-2.5-0.6l0.3-1c0.5,0.3,1.3,0.6,2.1,0.6c1.4,0,2.2-0.8,2.2-1.8c0-1.4-1.4-1.8-2.6-1.8h-0.6
		v-0.9h0.5c1.2,0,2.2-0.8,2.2-1.7C23.7,9.5,23,9,22,9c-0.7,0-1.5,0.3-2,0.6L19.7,8.7z"/>
	<path class="st4" d="M28.1,10.8v2.7h3.2v-2.7h1.2v6.8h-1.2v-3.1h-3.2v3.1h-1.2v-6.8H28.1z"/>
	<path class="st4" d="M39.3,16c0,0.6,0,1.2,0.1,1.6h-1.1l-0.1-0.9h0c-0.4,0.5-1.1,1-2.1,1c-1.4,0-2.1-1-2.1-1.9
		c0-1.6,1.5-2.5,4.1-2.5v-0.1c0-0.5-0.2-1.6-1.5-1.6c-0.6,0-1.3,0.2-1.8,0.5l-0.3-0.8c0.6-0.4,1.4-0.6,2.2-0.6
		c2.1,0,2.6,1.4,2.6,2.8V16z M38.1,14.1c-1.3,0-2.9,0.2-2.9,1.5c0,0.8,0.5,1.2,1.1,1.2c0.9,0,1.5-0.6,1.7-1.1c0-0.1,0.1-0.3,0.1-0.4
		V14.1z"/>
	<path class="st4" d="M42.2,10.8v2.3c0,0.9,0.3,1.4,1.4,1.4c0.5,0,1.1-0.2,1.5-0.5v-3.3h1.2v6.9h-1.2V15h0c-0.5,0.3-1.2,0.5-1.8,0.5
		c-1.3,0-2.2-0.7-2.2-2.2v-2.4H42.2z"/>
	<path class="st4" d="M49.5,10.8v2.9c0,1.1,0,1.8-0.1,2.7l0,0c0.4-0.8,0.6-1.3,1.1-2.1l2.1-3.5h1.4v6.8h-1.2v-2.9
		c0-1.1,0-1.7,0.1-2.8h0c-0.4,0.9-0.7,1.4-1.1,2.1c-0.6,1.1-1.4,2.4-2.1,3.5h-1.4v-6.8H49.5z"/>
	<path class="st4" d="M60.6,10.8v1h-2.1v5.8h-1.2v-5.8h-2.1v-1H60.6z"/>
	<path class="st4" d="M62.2,14.4c0,1.7,1.1,2.4,2.3,2.4c0.9,0,1.4-0.2,1.9-0.4l0.2,0.9c-0.4,0.2-1.2,0.4-2.3,0.4
		c-2.1,0-3.3-1.4-3.3-3.4c0-2,1.2-3.6,3.2-3.6c2.2,0,2.8,1.9,2.8,3.2c0,0.3,0,0.4,0,0.6H62.2z M65.8,13.6c0-0.8-0.3-2-1.7-2
		c-1.3,0-1.8,1.1-1.9,2H65.8z"/>
	<path class="st4" d="M73.7,10.8v6.8h-1.2v-5.8h-2.3v1.7c0,1.9-0.2,3.2-1.1,3.8c-0.3,0.3-0.7,0.4-1.3,0.4l-0.1-1
		c0.2,0,0.5-0.1,0.7-0.3C68.9,16,69,15,69,13.5v-2.7H73.7z"/>
	<path class="st4" d="M76.9,10.8v2.3c0.3,0,0.8-0.1,1.1-0.1c1.5,0,3.1,0.5,3.1,2.3c0,0.7-0.3,1.2-0.7,1.6c-0.7,0.6-2,0.8-3,0.8
		c-0.7,0-1.3,0-1.8-0.1v-6.8H76.9z M76.9,16.7c0.3,0,0.5,0.1,0.9,0.1c0.9,0,2.1-0.3,2.1-1.4c0-1.2-1.2-1.4-2.2-1.4
		c-0.3,0-0.6,0-0.9,0.1V16.7z"/>
	<path class="st4" d="M83.9,10.8v2.7h3.2v-2.7h1.2v6.8h-1.2v-3.1h-3.2v3.1h-1.2v-6.8H83.9z"/>
	<path class="st4" d="M96.5,14.2c0,2.5-1.8,3.6-3.4,3.6c-1.8,0-3.3-1.3-3.3-3.5c0-2.3,1.5-3.6,3.4-3.6
		C95.1,10.7,96.5,12.1,96.5,14.2z M91.1,14.2c0,1.5,0.8,2.6,2,2.6c1.2,0,2.1-1.1,2.1-2.6c0-1.1-0.6-2.6-2-2.6
		C91.7,11.6,91.1,13,91.1,14.2z"/>
	<path class="st4" d="M22.1,24.8v2.7h3.2v-2.7h1.2v6.8h-1.2v-3.1h-3.2v3.1h-1.2v-6.8H22.1z"/>
	<path class="st4" d="M29.7,24.8v2.9c0,1.1,0,1.8-0.1,2.7l0,0c0.4-0.8,0.6-1.3,1.1-2.1l2.1-3.5h1.4v6.8h-1.2v-2.9
		c0-1.1,0-1.7,0.1-2.8h0c-0.4,0.9-0.7,1.4-1.1,2.1c-0.6,1.1-1.4,2.4-2.1,3.5h-1.4v-6.8H29.7z"/>
	<path class="st4" d="M36.9,24.8l2.3,3h0.2v-3h1.2v3h0.2l2.2-3h1.4l-2.7,3.1c1,0.1,1.6,0.7,2,1.8c0.2,0.7,0.5,1.4,0.7,1.9h-1.2
		c-0.2-0.4-0.4-1-0.6-1.6c-0.4-1.1-1.1-1.4-1.9-1.4h-0.2v3h-1.2v-3h-0.2c-1,0-1.5,0.4-2,1.5c-0.2,0.6-0.4,1.1-0.6,1.5h-1.2
		c0.3-0.5,0.5-1.3,0.8-1.9c0.4-1.1,1-1.7,2-1.8l-2.7-3.1H36.9z"/>
	<path class="st4" d="M46.3,28.4c0,1.7,1.1,2.4,2.3,2.4c0.9,0,1.4-0.2,1.9-0.4l0.2,0.9c-0.4,0.2-1.2,0.4-2.3,0.4
		c-2.1,0-3.3-1.4-3.3-3.4c0-2,1.2-3.6,3.2-3.6c2.2,0,2.8,1.9,2.8,3.2c0,0.3,0,0.4,0,0.6H46.3z M49.9,27.6c0-0.8-0.3-2-1.7-2
		c-1.3,0-1.8,1.1-1.9,2H49.9z"/>
	<path class="st4" d="M56.8,24.8v2.7H60v-2.7h1.2v6.8H60v-3.1h-3.2v3.1h-1.2v-6.8H56.8z"/>
	<path class="st4" d="M69.3,28.2c0,2.5-1.8,3.6-3.4,3.6c-1.8,0-3.3-1.3-3.3-3.5c0-2.3,1.5-3.6,3.4-3.6C68,24.7,69.3,26.1,69.3,28.2z
		 M64,28.2c0,1.5,0.8,2.6,2,2.6c1.2,0,2.1-1.1,2.1-2.6c0-1.1-0.6-2.6-2-2.6C64.6,25.6,64,27,64,28.2z"/>
	<path class="st4" d="M70.9,27c0-0.9,0-1.6-0.1-2.2h1.1L72,26h0c0.5-0.8,1.3-1.3,2.4-1.3c1.7,0,2.9,1.4,2.9,3.4
		c0,2.4-1.5,3.6-3.1,3.6c-0.9,0-1.7-0.4-2.1-1.1h0v3.7h-1.2V27z M72.1,28.8c0,0.2,0,0.4,0.1,0.5c0.2,0.9,1,1.4,1.8,1.4
		c1.3,0,2.1-1.1,2.1-2.6c0-1.3-0.7-2.5-2-2.5c-0.8,0-1.6,0.6-1.9,1.5c0,0.2-0.1,0.3-0.1,0.5V28.8z"/>
	<path class="st4" d="M78.9,24.8h1.5l1.2,3.4c0.2,0.5,0.5,1.3,0.6,1.9h0c0.2-0.5,0.5-1.6,0.8-2.3l1.1-3h1.5l0.5,6.8H85l-0.2-3.2
		c0-0.7-0.1-1.6-0.1-2.4h0c-0.2,0.6-0.4,1.1-0.8,2.2l-1.3,3.4h-0.9l-1.2-3.4c-0.2-0.6-0.5-1.6-0.7-2.2h-0.1c0,0.8-0.1,1.7-0.1,2.4
		l-0.2,3.2h-1.1L78.9,24.8z"/>
	<path class="st4" d="M89,24.8v2.3c0.3,0,0.6-0.1,1.1-0.1c1.5,0,2.9,0.6,2.9,2.3c0,0.7-0.3,1.2-0.7,1.6c-0.7,0.6-1.8,0.8-2.7,0.8
		c-0.7,0-1.3,0-1.8-0.1v-6.8H89z M89,30.7c0.3,0,0.5,0.1,0.9,0.1c1,0,2-0.4,2-1.4c0-1.1-1-1.4-1.9-1.4c-0.4,0-0.7,0-0.9,0.1V30.7z
		 M95.1,24.8v6.8h-1.2v-6.8H95.1z"/>
</g>
<g>
	<path class="st4" d="M651.7,8.7c0.6-0.4,1.5-0.7,2.5-0.7c1.6,0,2.8,0.9,2.8,2.3c0,1.2-0.9,2.1-1.9,2.3v0c1.3,0.1,2.3,1,2.3,2.4
		c0,2-1.7,2.7-3.4,2.7c-0.9,0-1.7-0.2-2.5-0.6l0.3-1c0.5,0.3,1.3,0.6,2.1,0.6c1.4,0,2.2-0.8,2.2-1.8c0-1.4-1.4-1.8-2.6-1.8h-0.6
		v-0.9h0.5c1.2,0,2.2-0.8,2.2-1.7c0-1-0.7-1.5-1.7-1.5c-0.7,0-1.5,0.3-2,0.6L651.7,8.7z"/>
	<path class="st4" d="M660.1,10.8v2.7h3.2v-2.7h1.2v6.8h-1.2v-3.1h-3.2v3.1h-1.2v-6.8H660.1z"/>
	<path class="st4" d="M671.3,16c0,0.6,0,1.2,0.1,1.6h-1.1l-0.1-0.9h0c-0.4,0.5-1.1,1-2.1,1c-1.4,0-2.1-1-2.1-1.9
		c0-1.6,1.5-2.5,4.1-2.5v-0.1c0-0.5-0.2-1.6-1.5-1.6c-0.6,0-1.3,0.2-1.8,0.5l-0.3-0.8c0.6-0.4,1.4-0.6,2.2-0.6
		c2.1,0,2.6,1.4,2.6,2.8V16z M670.1,14.1c-1.3,0-2.9,0.2-2.9,1.5c0,0.8,0.5,1.2,1.1,1.2c0.9,0,1.5-0.6,1.7-1.1
		c0-0.1,0.1-0.3,0.1-0.4V14.1z"/>
	<path class="st4" d="M674.2,10.8v2.3c0,0.9,0.3,1.4,1.4,1.4c0.5,0,1.1-0.2,1.5-0.5v-3.3h1.2v6.9h-1.2V15h0
		c-0.5,0.3-1.2,0.5-1.8,0.5c-1.3,0-2.2-0.7-2.2-2.2v-2.4H674.2z"/>
	<path class="st4" d="M681.5,10.8v2.9c0,1.1,0,1.8-0.1,2.7l0,0c0.4-0.8,0.6-1.3,1.1-2.1l2.1-3.5h1.4v6.8h-1.2v-2.9
		c0-1.1,0-1.7,0.1-2.8h0c-0.4,0.9-0.7,1.4-1.1,2.1c-0.6,1.1-1.4,2.4-2.1,3.5h-1.4v-6.8H681.5z"/>
	<path class="st4" d="M692.6,10.8v1h-2.1v5.8h-1.2v-5.8h-2.1v-1H692.6z"/>
	<path class="st4" d="M694.2,14.4c0,1.7,1.1,2.4,2.3,2.4c0.9,0,1.4-0.2,1.9-0.4l0.2,0.9c-0.4,0.2-1.2,0.4-2.3,0.4
		c-2.1,0-3.3-1.4-3.3-3.4c0-2,1.2-3.6,3.2-3.6c2.2,0,2.8,1.9,2.8,3.2c0,0.3,0,0.4,0,0.6H694.2z M697.8,13.6c0-0.8-0.3-2-1.7-2
		c-1.3,0-1.8,1.1-1.9,2H697.8z"/>
	<path class="st4" d="M705.7,10.8v6.8h-1.2v-5.8h-2.3v1.7c0,1.9-0.2,3.2-1.1,3.8c-0.3,0.3-0.7,0.4-1.3,0.4l-0.1-1
		c0.2,0,0.5-0.1,0.7-0.3c0.6-0.5,0.7-1.4,0.7-2.9v-2.7H705.7z"/>
	<path class="st4" d="M708.9,10.8v2.3c0.3,0,0.8-0.1,1.1-0.1c1.5,0,3.1,0.5,3.1,2.3c0,0.7-0.3,1.2-0.7,1.6c-0.7,0.6-2,0.8-3,0.8
		c-0.7,0-1.3,0-1.8-0.1v-6.8H708.9z M708.9,16.7c0.3,0,0.5,0.1,0.9,0.1c0.9,0,2.1-0.3,2.1-1.4c0-1.2-1.2-1.4-2.2-1.4
		c-0.3,0-0.6,0-0.9,0.1V16.7z"/>
	<path class="st4" d="M715.9,10.8v2.7h3.2v-2.7h1.2v6.8h-1.2v-3.1h-3.2v3.1h-1.2v-6.8H715.9z"/>
	<path class="st4" d="M728.5,14.2c0,2.5-1.8,3.6-3.4,3.6c-1.8,0-3.3-1.3-3.3-3.5c0-2.3,1.5-3.6,3.4-3.6
		C727.1,10.7,728.5,12.1,728.5,14.2z M723.1,14.2c0,1.5,0.8,2.6,2,2.6c1.2,0,2.1-1.1,2.1-2.6c0-1.1-0.6-2.6-2-2.6
		C723.7,11.6,723.1,13,723.1,14.2z"/>
	<path class="st4" d="M651.9,24.9c0.5-0.1,1.4-0.2,2.2-0.2c1.1,0,3,0.2,3,1.7c0,0.8-0.6,1.4-1.4,1.5v0c1,0.1,1.7,0.7,1.7,1.7
		c0,1.8-2.2,2-3.6,2c-0.8,0-1.6-0.1-1.9-0.1V24.9z M653.1,30.8c0.3,0,0.6,0,1,0c0.8,0,2.1-0.2,2.1-1.2c0-1-1-1.2-2.2-1.2h-0.9V30.8z
		 M653.1,27.7h0.9c0.9,0,1.8-0.3,1.8-1.1c0-0.7-0.6-1-1.8-1c-0.4,0-0.7,0-1,0.1V27.7z"/>
	<path class="st4" d="M660.1,24.8v2.3c0.3,0,0.6-0.1,1.1-0.1c1.5,0,2.9,0.6,2.9,2.3c0,0.7-0.3,1.2-0.7,1.6c-0.7,0.6-1.8,0.8-2.7,0.8
		c-0.7,0-1.3,0-1.8-0.1v-6.8H660.1z M660.1,30.7c0.3,0,0.5,0.1,0.9,0.1c1,0,2-0.4,2-1.4c0-1.1-1-1.4-1.9-1.4c-0.4,0-0.7,0-0.9,0.1
		V30.7z M666.2,24.8v6.8H665v-6.8H666.2z"/>
	<path class="st4" d="M669.4,24.8v5.8h2.4v-5.8h1.2v5.8h2.4v-5.8h1.2v6.8h-8.4v-6.8H669.4z"/>
	<path class="st4" d="M679.3,28.4c0,1.7,1.1,2.4,2.3,2.4c0.9,0,1.4-0.2,1.9-0.4l0.2,0.9c-0.4,0.2-1.2,0.4-2.3,0.4
		c-2.1,0-3.3-1.4-3.3-3.4c0-2,1.2-3.6,3.2-3.6c2.2,0,2.8,1.9,2.8,3.2c0,0.3,0,0.4,0,0.6H679.3z M682.9,27.6c0-0.8-0.3-2-1.7-2
		c-1.3,0-1.8,1.1-1.9,2H682.9z"/>
	<path class="st4" d="M689.8,24.8v2.7h3.2v-2.7h1.2v6.8H693v-3.1h-3.2v3.1h-1.2v-6.8H689.8z"/>
	<path class="st4" d="M702.3,28.2c0,2.5-1.8,3.6-3.4,3.6c-1.8,0-3.3-1.3-3.3-3.5c0-2.3,1.5-3.6,3.4-3.6
		C701,24.7,702.3,26.1,702.3,28.2z M697,28.2c0,1.5,0.8,2.6,2,2.6c1.2,0,2.1-1.1,2.1-2.6c0-1.1-0.6-2.6-2-2.6
		C697.6,25.6,697,27,697,28.2z"/>
	<path class="st4" d="M703.9,27c0-0.9,0-1.6-0.1-2.2h1.1L705,26h0c0.5-0.8,1.3-1.3,2.4-1.3c1.7,0,2.9,1.4,2.9,3.4
		c0,2.4-1.5,3.6-3.1,3.6c-0.9,0-1.7-0.4-2.1-1.1h0v3.7h-1.2V27z M705.1,28.8c0,0.2,0,0.4,0.1,0.5c0.2,0.9,1,1.4,1.8,1.4
		c1.3,0,2.1-1.1,2.1-2.6c0-1.3-0.7-2.5-2-2.5c-0.8,0-1.6,0.6-1.9,1.5c0,0.2-0.1,0.3-0.1,0.5V28.8z"/>
	<path class="st4" d="M711.9,24.8h1.5l1.2,3.4c0.2,0.5,0.5,1.3,0.6,1.9h0c0.2-0.5,0.5-1.6,0.8-2.3l1.1-3h1.5l0.5,6.8H718l-0.2-3.2
		c0-0.7-0.1-1.6-0.1-2.4h0c-0.2,0.6-0.4,1.1-0.8,2.2l-1.3,3.4h-0.9l-1.2-3.4c-0.2-0.6-0.5-1.6-0.7-2.2h-0.1c0,0.8-0.1,1.7-0.1,2.4
		l-0.2,3.2h-1.1L711.9,24.8z"/>
	<path class="st4" d="M722,24.8v2.3c0.3,0,0.6-0.1,1.1-0.1c1.5,0,2.9,0.6,2.9,2.3c0,0.7-0.3,1.2-0.7,1.6c-0.7,0.6-1.8,0.8-2.7,0.8
		c-0.7,0-1.3,0-1.8-0.1v-6.8H722z M722,30.7c0.3,0,0.5,0.1,0.9,0.1c1,0,2-0.4,2-1.4c0-1.1-1-1.4-1.9-1.4c-0.4,0-0.7,0-0.9,0.1V30.7z
		 M728.1,24.8v6.8h-1.2v-6.8H728.1z"/>
</g>
<g>
	<path class="st4" d="M479.2,15.3c0.5-0.1,1.4-0.2,2.2-0.2c1.2,0,2,0.2,2.6,0.7c0.5,0.4,0.8,0.9,0.8,1.7c0,0.9-0.6,1.7-1.6,2.1v0
		c0.9,0.2,1.9,1,1.9,2.4c0,0.8-0.3,1.4-0.8,1.9c-0.6,0.6-1.7,0.9-3.3,0.9c-0.8,0-1.5-0.1-1.9-0.1V15.3z M480.4,19.2h1.1
		c1.3,0,2-0.7,2-1.6c0-1.1-0.8-1.5-2.1-1.5c-0.6,0-0.9,0-1.1,0.1V19.2z M480.4,23.7c0.3,0,0.6,0.1,1,0.1c1.3,0,2.4-0.5,2.4-1.8
		c0-1.3-1.1-1.8-2.4-1.8h-1V23.7z"/>
	<path class="st4" d="M487.9,17.8v2.3c0.3,0,0.6-0.1,1.1-0.1c1.5,0,2.9,0.6,2.9,2.3c0,0.7-0.3,1.2-0.7,1.6c-0.7,0.6-1.8,0.8-2.7,0.8
		c-0.7,0-1.3,0-1.8-0.1v-6.8H487.9z M487.9,23.7c0.3,0,0.5,0.1,0.9,0.1c1,0,2-0.4,2-1.4c0-1.1-1-1.4-1.9-1.4c-0.4,0-0.7,0-0.9,0.1
		V23.7z M494,17.8v6.8h-1.2v-6.8H494z"/>
	<path class="st4" d="M497.2,17.8v5.8h2.4v-5.8h1.2v5.8h2.4v-5.8h1.2v6.8H496v-6.8H497.2z"/>
	<path class="st4" d="M507.1,21.4c0,1.7,1.1,2.4,2.3,2.4c0.9,0,1.4-0.2,1.9-0.4l0.2,0.9c-0.4,0.2-1.2,0.4-2.3,0.4
		c-2.1,0-3.3-1.4-3.3-3.4c0-2,1.2-3.6,3.2-3.6c2.2,0,2.8,1.9,2.8,3.2c0,0.3,0,0.4,0,0.6H507.1z M510.7,20.6c0-0.8-0.3-2-1.7-2
		c-1.3,0-1.8,1.1-1.9,2H510.7z"/>
	<path class="st4" d="M517.5,17.8v2.7h3.2v-2.7h1.2v6.8h-1.2v-3.1h-3.2v3.1h-1.2v-6.8H517.5z"/>
	<path class="st4" d="M530.1,21.2c0,2.5-1.8,3.6-3.4,3.6c-1.8,0-3.3-1.3-3.3-3.5c0-2.3,1.5-3.6,3.4-3.6
		C528.8,17.7,530.1,19.1,530.1,21.2z M524.8,21.2c0,1.5,0.8,2.6,2,2.6c1.2,0,2.1-1.1,2.1-2.6c0-1.1-0.6-2.6-2-2.6
		C525.4,18.6,524.8,20,524.8,21.2z"/>
	<path class="st4" d="M531.7,20c0-0.9,0-1.6-0.1-2.2h1.1l0.1,1.2h0c0.5-0.8,1.3-1.3,2.4-1.3c1.7,0,2.9,1.4,2.9,3.4
		c0,2.4-1.5,3.6-3.1,3.6c-0.9,0-1.7-0.4-2.1-1.1h0v3.7h-1.2V20z M532.9,21.8c0,0.2,0,0.4,0.1,0.5c0.2,0.9,1,1.4,1.8,1.4
		c1.3,0,2.1-1.1,2.1-2.6c0-1.3-0.7-2.5-2-2.5c-0.8,0-1.6,0.6-1.9,1.5c0,0.2-0.1,0.3-0.1,0.5V21.8z"/>
	<path class="st4" d="M539.7,17.8h1.5l1.2,3.4c0.2,0.5,0.5,1.3,0.6,1.9h0c0.2-0.5,0.5-1.6,0.8-2.3l1.1-3h1.5l0.5,6.8h-1.2l-0.2-3.2
		c0-0.7-0.1-1.6-0.1-2.4h0c-0.2,0.6-0.4,1.1-0.8,2.2l-1.3,3.4h-0.9l-1.2-3.4c-0.2-0.6-0.5-1.6-0.7-2.2h-0.1c0,0.8-0.1,1.7-0.1,2.4
		l-0.2,3.2h-1.1L539.7,17.8z"/>
	<path class="st4" d="M549.8,17.8v2.3c0.3,0,0.6-0.1,1.1-0.1c1.5,0,2.9,0.6,2.9,2.3c0,0.7-0.3,1.2-0.7,1.6c-0.7,0.6-1.8,0.8-2.7,0.8
		c-0.7,0-1.3,0-1.8-0.1v-6.8H549.8z M549.8,23.7c0.3,0,0.5,0.1,0.9,0.1c1,0,2-0.4,2-1.4c0-1.1-1-1.4-1.9-1.4c-0.4,0-0.7,0-0.9,0.1
		V23.7z M555.9,17.8v6.8h-1.2v-6.8H555.9z"/>
</g>
<rect x="230" class="st3" width="1" height="40"/>
<rect x="460" class="st3" width="1" height="40"/>
</svg>
