<?xml version="1.0" encoding="utf-8"?>
<!-- Generator: Adobe Illustrator 19.2.1, SVG Export Plug-In . SVG Version: 6.00 Build 0)  -->
<svg version="1.1" id="Слой_1" xmlns="http://www.w3.org/2000/svg" xmlns:xlink="http://www.w3.org/1999/xlink" x="0px" y="0px"
	 viewBox="0 0 32 32" style="enable-background:new 0 0 32 32;" xml:space="preserve">
<style type="text/css">
	.st0{fill:#038E21;}
	.st1{fill:#262D2A;}
</style>
<polygon id="XMLID_73_" class="st0" points="23.1,15.2 21,13.1 14.2,20 11,16.8 8.9,18.9 14.2,24.2 14.2,24.2 14.2,24.2 "/>
<path class="st1" d="M26.8,1h-14l0,0c-0.2,0-0.4,0.1-0.5,0.2l-8,8C4.1,9.4,4,9.6,4.1,9.8l0,0v20.1C4,30.5,4.5,31,5.2,31h21.7
	c0.6,0,1.1-0.5,1.1-1.1V2.1C28,1.5,27.5,1,26.8,1z M6.4,9.1l5.7-5.7v5.7H6.4z M26.6,2.4v27.2H5.4V10.4h7.4c0.4,0,0.7-0.3,0.7-0.7
	V2.4H26.6z"/>
</svg>
